<?xml version="1.0" standalone="no"?>
<!DOCTYPE svg PUBLIC "-//W3C//DTD SVG 20010904//EN"
 "http://www.w3.org/TR/2001/REC-SVG-20010904/DTD/svg10.dtd">
<svg version="1.0" xmlns="http://www.w3.org/2000/svg"
 width="400.000000pt" height="400.000000pt" viewBox="0 0 400.000000 400.000000"
 preserveAspectRatio="xMidYMid meet">
<metadata>
Created by potrace 1.11, written by Peter Selinger 2001-2013
</metadata>
<g transform="translate(0.000000,400.000000) scale(0.100000,-0.100000)"
fill="#000000" stroke="none">
<path d="M1793 2426 c-6 -10 -63 -14 -275 -18 -229 -5 -269 -3 -280 9 -10 13
-33 14 -143 8 l-130 -7 -53 -51 -52 -52 0 -275 0 -275 53 -52 52 -51 130 -7
c110 -6 133 -5 143 8 11 12 50 14 280 9 209 -4 269 -8 277 -19 8 -11 116 -13
625 -11 l615 3 3 33 c3 29 1 32 -22 32 l-26 0 0 330 0 330 26 0 c23 0 25 3 22
33 l-3 32 -617 3 c-514 2 -618 0 -625 -12z m1237 -21 l0 -25 -615 0 -615 0 0
25 0 25 615 0 615 0 0 -25z m-1233 -532 c-1 -93 -3 -17 -3 167 0 184 2 260 3
168 2 -93 2 -243 0 -335z m-467 167 l0 -320 -207 0 c-198 0 -208 1 -230 22
-23 21 -23 22 -23 297 0 268 1 275 22 298 21 23 25 23 230 23 l208 0 0 -320z
m50 0 c0 -226 -2 -270 -15 -280 -13 -11 -15 21 -15 280 0 259 2 291 15 280 13
-10 15 -54 15 -280z m848 194 c188 -78 167 -351 -31 -399 -79 -20 -180 35
-218 119 -47 103 2 230 106 277 49 23 94 24 143 3z m510 -10 c188 -78 167
-351 -31 -399 -79 -20 -180 35 -218 119 -47 103 2 230 106 277 49 23 94 24
143 3z m292 -549 l0 -25 -615 0 -615 0 0 25 0 25 615 0 615 0 0 -25z"/>
</g>
</svg>
